0
SECTION
2
HEADER
9
$INSUNITS
70
4
9
$ACADVER
1
AC1014
9
$HANDSEED
5
FFFF
0
ENDSEC
0
SECTION
2
TABLES
0
TABLE
2
VPORT
5
8
100
AcDbSymbolTable
0
ENDTAB
0
TABLE
2
LTYPE
5
5
100
AcDbSymbolTable
0
LTYPE
5
14
100
AcDbSymbolTableRecord
100
AcDbLinetypeTableRecord
2
BYBLOCK
70
0
0
LTYPE
5
15
100
AcDbSymbolTableRecord
100
AcDbLinetypeTableRecord
2
BYLAYER
70
0
0
ENDTAB
0
TABLE
2
LAYER
5
2
100
AcDbSymbolTable
70
2
0
LAYER
5
50
100
AcDbSymbolTableRecord
100
AcDbLayerTableRecord
2
0
70
0
6
CONTINUOUS
0
ENDTAB
0
TABLE
2
STYLE
5
3
100
AcDbSymbolTable
70
1
0
STYLE
5
11
100
AcDbSymbolTableRecord
100
AcDbTextStyleTableRecord
2
STANDARD
70
0
0
ENDTAB
0
TABLE
2
VIEW
5
6
100
AcDbSymbolTable
70
0
0
ENDTAB
0
TABLE
2
UCS
5
7
100
AcDbSymbolTable
70
0
0
ENDTAB
0
TABLE
2
APPID
5
9
100
AcDbSymbolTable
70
2
0
APPID
5
12
100
AcDbSymbolTableRecord
100
AcDbRegAppTableRecord
2
ACAD
70
0
0
ENDTAB
0
TABLE
2
DIMSTYLE
5
A
100
AcDbSymbolTable
70
1
0
ENDTAB
0
TABLE
2
BLOCK_RECORD
5
1
100
AcDbSymbolTable
70
1
0
BLOCK_RECORD
5
1F
100
AcDbSymbolTableRecord
100
AcDbBlockTableRecord
2
*MODEL_SPACE
0
BLOCK_RECORD
5
1B
100
AcDbSymbolTableRecord
100
AcDbBlockTableRecord
2
*PAPER_SPACE
0
ENDTAB
0
ENDSEC
0
SECTION
2
BLOCKS
0
BLOCK
5
20
100
AcDbEntity
100
AcDbBlockBegin
2
*MODEL_SPACE
0
ENDBLK
5
21
100
AcDbEntity
100
AcDbBlockEnd
0
BLOCK
5
1C
100
AcDbEntity
100
AcDbBlockBegin
2
*PAPER_SPACE
0
ENDBLK
5
1D
100
AcDbEntity
100
AcDbBlockEnd
0
ENDSEC
0
SECTION
2
ENTITIES
0
LINE
5
100
100
AcDbEntity
8
0
100
AcDbLine
10
0.99999999999999989
20
2.9628418251522159
30
0
11
-0.33440936642813002
21
2.9628418251522159
31
0
0
LINE
5
101
100
AcDbEntity
8
0
100
AcDbLine
10
1.9999999999999996
20
3.9628418251522159
30
0
11
1.9999999999999996
21
21.96284219768124
31
0
0
LINE
5
102
100
AcDbEntity
8
0
100
AcDbLine
10
7.9999999999999991
20
27.962842197681251
30
0
11
34.971385391015247
21
27.962842197681248
31
0
0
LINE
5
103
100
AcDbEntity
8
0
100
AcDbLine
10
36.10120658682559
20
30.449505293929246
30
0
11
19.30349612977891
21
49.684449205002693
31
0
0
LINE
5
104
100
AcDbEntity
8
0
100
AcDbLine
10
20.809924390859361
20
53.000000000000028
30
0
11
25.095792170821962
21
53.000000000000036
31
0
0
LINE
5
105
100
AcDbEntity
8
0
100
AcDbLine
10
26.225613366632309
20
55.48666309624803
30
0
11
9.7911403816232205
21
74.305666250460035
31
0
0
LINE
5
106
100
AcDbEntity
8
0
100
AcDbLine
10
11.297568642703677
20
77.621217045457371
30
0
11
12.820006085906479
21
77.621217045457371
31
0
0
LINE
5
107
100
AcDbEntity
8
0
100
AcDbLine
10
13.949827281716821
20
80.107880141705365
30
0
11
0
21
96.081732412770293
31
0
0
LINE
5
108
100
AcDbEntity
8
0
100
AcDbLine
10
41.980151334972284
20
28.278392992678665
30
0
11
24.458580406620428
21
48.342224602501375
31
0
0
LINE
5
109
100
AcDbEntity
8
0
100
AcDbLine
10
32.10455811477911
20
53.315550794997336
30
0
11
14.946224658464773
21
72.963441647958703
31
0
0
LINE
5
110
100
AcDbEntity
8
0
100
AcDbLine
10
19.828772029863615
20
77.936767840454692
30
0
11
-0.00819958059584458
21
100.65194901162896
31
0
0
LINE
5
111
100
AcDbEntity
8
0
100
AcDbLine
10
9.9999999999999449
20
24.962842197681248
30
0
11
40.473723073891826
21
24.962842197681322
31
0
0
LINE
5
112
100
AcDbEntity
8
0
100
AcDbLine
10
5
20
0
30
0
11
4.9999999999999574
21
19.962842197681233
31
0
0
ARC
5
113
100
AcDbEntity
8
0
100
AcDbCircle
10
7.9999999999999991
20
21.962842197681248
30
0
40
6.0000000000000009
210
0
220
-0
230
1
100
AcDbArc
50
90
51
180
0
ARC
5
114
100
AcDbEntity
8
0
100
AcDbCircle
10
34.971385391015247
20
29.462842197681244
30
0
40
1.4999999999999991
210
0
220
0
230
1
100
AcDbArc
50
-90
51
41.130431836087709
0
ARC
5
115
100
AcDbEntity
8
0
100
AcDbCircle
10
25.095792170821962
20
54.500000000000036
30
0
40
1.5000000000000036
210
0
220
0
230
1
100
AcDbArc
50
-90
51
41.130431836087411
0
ARC
5
116
100
AcDbEntity
8
0
100
AcDbCircle
10
12.820006085906479
20
79.121217045457371
30
0
40
1.5000000000000036
210
0
220
0
230
1
100
AcDbArc
50
-90
51
41.130431836087546
0
LINE
5
117
100
AcDbEntity
8
0
100
AcDbLine
10
15.699438789005001
20
74.621217045457371
30
0
11
18.322343768783167
21
74.621217045457371
31
0
0
LINE
5
118
100
AcDbEntity
8
0
100
AcDbLine
10
25.21179453716066
20
50.000000000000036
30
0
11
30.598129853698648
21
50.000000000000014
31
0
0
ARC
5
119
100
AcDbEntity
8
0
100
AcDbCircle
10
11.297568642703679
20
75.621217045457371
30
0
40
2.0000000000000018
210
0
220
0
230
1
100
AcDbArc
50
90.000000000000057
51
221.13043183608769
0
ARC
5
120
100
AcDbEntity
8
0
100
AcDbCircle
10
20.809924390859361
20
51.000000000000028
30
0
40
1.9999999999999929
210
0
220
-0
230
1
100
AcDbArc
50
90
51
221.13043183608784
0
LINE
5
121
100
AcDbEntity
8
0
100
AcDbLine
10
0
20
-5
30
0
11
0
21
110
31
0
0
ARC
5
122
100
AcDbEntity
8
0
100
AcDbCircle
10
-25.095792170821962
20
54.500000000000036
30
0
40
1.4999999999999982
210
0
220
0
230
1
100
AcDbArc
50
138.86956816391259
51
270
0
LINE
5
123
100
AcDbEntity
8
0
100
AcDbLine
10
-26.225613366632309
20
55.48666309624803
30
0
11
-9.7911403816232205
21
74.305666250460035
31
0
0
ARC
5
124
100
AcDbEntity
8
0
100
AcDbCircle
10
-11.297568642703679
20
75.621217045457371
30
0
40
2.0000000000000044
210
0
220
0
230
1
100
AcDbArc
50
-41.130431836087709
51
89.999999999999943
0
LINE
5
125
100
AcDbEntity
8
0
100
AcDbLine
10
-13.949827281716821
20
80.107880141705365
30
0
11
0
21
96.081732412770293
31
0
0
LINE
5
126
100
AcDbEntity
8
0
100
AcDbLine
10
-9.9999999999999449
20
24.962842197681248
30
0
11
-40.473723073891826
21
24.962842197681322
31
0
0
LINE
5
127
100
AcDbEntity
8
0
100
AcDbLine
10
-5
20
0
30
0
11
-4.9999999999999574
21
19.962842197681233
31
0
0
LINE
5
128
100
AcDbEntity
8
0
100
AcDbLine
10
-0.99999999999999989
20
2.9628418251522159
30
0
11
0.33440936642813002
21
2.9628418251522159
31
0
0
ARC
5
129
100
AcDbEntity
8
0
100
AcDbCircle
10
-20.809924390859361
20
51.000000000000028
30
0
40
1.9999999999999993
210
-0
220
0
230
1
100
AcDbArc
50
-41.130431836087865
51
90
0
LINE
5
130
100
AcDbEntity
8
0
100
AcDbLine
10
-1.9999999999999996
20
3.9628418251522159
30
0
11
-1.9999999999999996
21
21.96284219768124
31
0
0
ARC
5
131
100
AcDbEntity
8
0
100
AcDbCircle
10
-34.971385391015247
20
29.462842197681244
30
0
40
1.5000000000000009
210
0
220
0
230
1
100
AcDbArc
50
138.86956816391231
51
270
0
ARC
5
132
100
AcDbEntity
8
0
100
AcDbCircle
10
-12.820006085906479
20
79.121217045457371
30
0
40
1.5000000000000024
210
0
220
0
230
1
100
AcDbArc
50
138.86956816391245
51
270
0
ARC
5
133
100
AcDbEntity
8
0
100
AcDbCircle
10
-7.9999999999999991
20
21.962842197681248
30
0
40
6
210
-0
220
0
230
1
100
AcDbArc
50
0
51
90
0
LINE
5
134
100
AcDbEntity
8
0
100
AcDbLine
10
-41.980151334972284
20
28.278392992678665
30
0
11
-24.458580406620428
21
48.342224602501375
31
0
0
LINE
5
135
100
AcDbEntity
8
0
100
AcDbLine
10
-25.21179453716066
20
50.000000000000036
30
0
11
-30.598129853698648
21
50.000000000000014
31
0
0
LINE
5
136
100
AcDbEntity
8
0
100
AcDbLine
10
-19.828772029863615
20
77.936767840454706
30
0
11
0.00819958059584458
21
100.65194901162896
31
0
0
LINE
5
137
100
AcDbEntity
8
0
100
AcDbLine
10
-32.10455811477911
20
53.315550794997336
30
0
11
-14.946224658464773
21
72.963441647958703
31
0
0
LINE
5
138
100
AcDbEntity
8
0
100
AcDbLine
10
-36.10120658682559
20
30.449505293929246
30
0
11
-19.30349612977891
21
49.684449205002693
31
0
0
LINE
5
139
100
AcDbEntity
8
0
100
AcDbLine
10
-11.297568642703677
20
77.621217045457371
30
0
11
-12.820006085906479
21
77.621217045457371
31
0
0
LINE
5
140
100
AcDbEntity
8
0
100
AcDbLine
10
-15.699438789005001
20
74.621217045457371
30
0
11
-18.322343768783167
21
74.621217045457371
31
0
0
LINE
5
141
100
AcDbEntity
8
0
100
AcDbLine
10
-20.809924390859361
20
53.000000000000028
30
0
11
-25.095792170821962
21
53.000000000000036
31
0
0
ARC
5
142
100
AcDbEntity
8
0
100
AcDbCircle
10
-25.00000037252903
20
28.000000417232513
30
0
40
3.0000000447034836
210
0
220
0
230
1
100
AcDbArc
50
-180
51
0
0
LINE
5
143
100
AcDbEntity
8
0
100
AcDbLine
10
-28.000000417232513
20
28.000000417232513
30
0
11
-34.971385391015247
21
27.962842197681248
31
0
0
LINE
5
144
100
AcDbEntity
8
0
100
AcDbLine
10
-22.000000327825546
20
28.000000417232513
30
0
11
-7.9999999999999991
21
27.962842197681251
31
0
0
ARC
5
145
100
AcDbEntity
8
0
100
AcDbCircle
10
0.99999999999999989
20
3.9628418251522159
30
0
40
0.99999999999999978
210
0
220
0
230
1
100
AcDbArc
50
-90
51
0
0
ARC
5
146
100
AcDbEntity
8
0
100
AcDbCircle
10
-0.99999999999999989
20
3.9628418251522159
30
0
40
0.99999999999999967
210
0
220
-0
230
1
100
AcDbArc
50
180
51
270
0
ENDSEC
0
SECTION
2
OBJECTS
0
DICTIONARY
5
C
100
AcDbDictionary
3
ACAD_GROUP
350
D
3
ACAD_MLINESTYLE
350
17
0
DICTIONARY
5
D
100
AcDbDictionary
0
DICTIONARY
5
1A
330
C
100
AcDbDictionary
0
DICTIONARY
5
17
100
AcDbDictionary
0
ENDSEC
0
EOF
