0
SECTION
2
HEADER
9
$INSUNITS
70
4
9
$ACADVER
1
AC1014
9
$HANDSEED
5
FFFF
0
ENDSEC
0
SECTION
2
TABLES
0
TABLE
2
VPORT
5
8
100
AcDbSymbolTable
0
ENDTAB
0
TABLE
2
LTYPE
5
5
100
AcDbSymbolTable
0
LTYPE
5
14
100
AcDbSymbolTableRecord
100
AcDbLinetypeTableRecord
2
BYBLOCK
70
0
0
LTYPE
5
15
100
AcDbSymbolTableRecord
100
AcDbLinetypeTableRecord
2
BYLAYER
70
0
0
ENDTAB
0
TABLE
2
LAYER
5
2
100
AcDbSymbolTable
70
2
0
LAYER
5
50
100
AcDbSymbolTableRecord
100
AcDbLayerTableRecord
2
0
70
0
6
CONTINUOUS
0
ENDTAB
0
TABLE
2
STYLE
5
3
100
AcDbSymbolTable
70
1
0
STYLE
5
11
100
AcDbSymbolTableRecord
100
AcDbTextStyleTableRecord
2
STANDARD
70
0
0
ENDTAB
0
TABLE
2
VIEW
5
6
100
AcDbSymbolTable
70
0
0
ENDTAB
0
TABLE
2
UCS
5
7
100
AcDbSymbolTable
70
0
0
ENDTAB
0
TABLE
2
APPID
5
9
100
AcDbSymbolTable
70
2
0
APPID
5
12
100
AcDbSymbolTableRecord
100
AcDbRegAppTableRecord
2
ACAD
70
0
0
ENDTAB
0
TABLE
2
DIMSTYLE
5
A
100
AcDbSymbolTable
70
1
0
ENDTAB
0
TABLE
2
BLOCK_RECORD
5
1
100
AcDbSymbolTable
70
1
0
BLOCK_RECORD
5
1F
100
AcDbSymbolTableRecord
100
AcDbBlockTableRecord
2
*MODEL_SPACE
0
BLOCK_RECORD
5
1B
100
AcDbSymbolTableRecord
100
AcDbBlockTableRecord
2
*PAPER_SPACE
0
ENDTAB
0
ENDSEC
0
SECTION
2
BLOCKS
0
BLOCK
5
20
100
AcDbEntity
100
AcDbBlockBegin
2
*MODEL_SPACE
0
ENDBLK
5
21
100
AcDbEntity
100
AcDbBlockEnd
0
BLOCK
5
1C
100
AcDbEntity
100
AcDbBlockBegin
2
*PAPER_SPACE
0
ENDBLK
5
1D
100
AcDbEntity
100
AcDbBlockEnd
0
ENDSEC
0
SECTION
2
ENTITIES
0
SPLINE
5
100
100
AcDbEntity
8
0
100
AcDbSpline
70
4
71
5
72
21
73
15
74
0
42
0.000000001
43
0.0000000001
44
0.0000000001
40
0
40
0
40
0
40
0
40
0
40
0
40
0.10000000000000001
40
0.20000000000000001
40
0.30000000000000004
40
0.40000000000000002
40
0.5
40
0.59999999999999998
40
0.69999999999999996
40
0.79999999999999993
40
0.89999999999999991
40
1
40
1
40
1
40
1
40
1
40
1
41
1
41
1
41
1
41
1
41
1
41
1
41
1
41
1
41
1
41
1
41
1
41
1
41
1
41
1
41
1
10
9.5377667106354522
20
89.696803977805757
30
0
10
9.380635032151579
20
89.510399988898655
30
0
10
9.0299438539893782
20
89.139949714371753
30
0
10
8.3946402018002093
20
88.591346339431155
30
0
10
7.3252946844841373
20
87.87426132273103
30
0
10
5.599302342756233
20
87.003102235915833
30
0
10
3.4656284943758777
20
86.158329356006092
30
0
10
0.92779692030828098
20
85.339714614723903
30
0
10
-1.9811341554549025
20
84.54511839786646
30
0
10
-5.2203016902436472
20
83.771895943079357
30
0
10
-8.7497938604796985
20
83.017464053382199
30
0
10
-11.780759624560487
20
82.427340198316386
30
0
10
-14.162054234406813
20
81.991741896895491
30
0
10
-15.796835598590473
20
81.704401277230971
30
0
10
-16.626039325709709
20
81.56149553837966
30
0
0
SPLINE
5
101
100
AcDbEntity
8
0
100
AcDbSpline
70
4
71
5
72
21
73
15
74
0
42
0.000000001
43
0.0000000001
44
0.0000000001
40
0
40
0
40
0
40
0
40
0
40
0
40
0.10000000000000001
40
0.20000000000000001
40
0.30000000000000004
40
0.40000000000000002
40
0.5
40
0.59999999999999998
40
0.69999999999999996
40
0.79999999999999993
40
0.89999999999999991
40
1
40
1
40
1
40
1
40
1
40
1
41
1
41
1
41
1
41
1
41
1
41
1
41
1
41
1
41
1
41
1
41
1
41
1
41
1
41
1
41
1
10
15.000000223517418
20
73.000001087784767
30
0
10
14.653958540516516
20
72.678187959669629
30
0
10
13.919231398535265
20
72.045014815401984
30
0
10
12.689217267046224
20
71.126612496080767
30
0
10
10.789073012167714
20
69.965839656045418
30
0
10
7.9563014274503354
20
68.627041270058811
30
0
10
4.6402851177545612
20
67.406698886152284
30
0
10
0.83315484731520151
20
66.30674146115004
30
0
10
-3.4339971865774519
20
65.319547479086864
30
0
10
-8.1153598214936657
20
64.433887418206808
30
0
10
-13.16411680148927
20
63.63828538187618
30
0
10
-17.466792301747567
20
63.06643618961715
30
0
10
-20.831482039732737
20
62.671299050467432
30
0
10
-23.134804747247571
20
62.422629967946158
30
0
10
-24.301515507695719
20
62.301984432396395
30
0
0
SPLINE
5
102
100
AcDbEntity
8
0
100
AcDbSpline
70
4
71
5
72
21
73
15
74
0
42
0.000000001
43
0.0000000001
44
0.0000000001
40
0
40
0
40
0
40
0
40
0
40
0
40
0.10000000000000001
40
0.20000000000000001
40
0.30000000000000004
40
0.40000000000000002
40
0.5
40
0.59999999999999998
40
0.69999999999999996
40
0.79999999999999993
40
0.89999999999999991
40
1
40
1
40
1
40
1
40
1
40
1
41
1
41
1
41
1
41
1
41
1
41
1
41
1
41
1
41
1
41
1
41
1
41
1
41
1
41
1
41
1
10
21.000000312924385
20
66.000000983476639
30
0
10
20.540333047558143
20
65.503848822243512
30
0
10
19.57873182896941
20
64.525294318257977
30
0
10
18.009528441205404
20
63.09871250448861
30
0
10
15.659494463312388
20
61.280456491733659
30
0
10
12.266866737155116
20
59.155680714656114
30
0
10
8.390236374025605
20
57.188356319279464
30
0
10
4.011946284045723
20
55.384227351165947
30
0
10
-0.84685474257059856
20
53.736413876227623
30
0
10
-6.1431795354784775
20
52.230931695102512
30
0
10
-11.831110907062651
20
50.852843441580049
30
0
10
-16.66376051050608
20
49.842209599886345
30
0
10
-20.435957285796338
20
49.132285767377617
30
0
10
-23.015329333208602
20
48.680009909023163
30
0
10
-24.321159614309437
20
48.459123884358242
30
0
0
SPLINE
5
103
100
AcDbEntity
8
0
100
AcDbSpline
70
4
71
5
72
21
73
15
74
0
42
0.000000001
43
0.0000000001
44
0.0000000001
40
0
40
0
40
0
40
0
40
0
40
0
40
0.10000000000000001
40
0.20000000000000001
40
0.30000000000000004
40
0.40000000000000002
40
0.5
40
0.59999999999999998
40
0.69999999999999996
40
0.79999999999999993
40
0.89999999999999991
40
1
40
1
40
1
40
1
40
1
40
1
41
1
41
1
41
1
41
1
41
1
41
1
41
1
41
1
41
1
41
1
41
1
41
1
41
1
41
1
41
1
10
27.841154183462763
20
44.460318568468622
30
0
10
27.435332966355674
20
44.023821224375332
30
0
10
26.522827032656593
20
43.161746539517992
30
0
10
24.851533432317993
20
41.901388481168844
30
0
10
22.00763008455667
20
40.287549564832716
30
0
10
17.378664903908668
20
38.386537016052991
30
0
10
11.635201606470037
20
36.606185788779896
30
0
10
4.8119557423582524
20
34.942737398261443
30
0
10
-2.98898406338532
20
33.385139202741541
30
0
10
-11.651124569105214
20
31.920779042287307
30
0
10
-21.065178064343094
20
30.537824864986504
30
0
10
-29.131284771437169
20
29.489368652191793
30
0
10
-35.459169993795491
20
28.733157249858635
30
0
10
-39.799443005175469
20
28.242190330105746
30
0
10
-42.00000062584877
20
28.000000417232513
30
0
0
SPLINE
5
104
100
AcDbEntity
8
0
100
AcDbSpline
70
4
71
5
72
21
73
15
74
0
42
0.000000001
43
0.0000000001
44
0.0000000001
40
0
40
0
40
0
40
0
40
0
40
0
40
0.10000000000000001
40
0.20000000000000001
40
0.30000000000000004
40
0.40000000000000002
40
0.5
40
0.59999999999999998
40
0.69999999999999996
40
0.79999999999999993
40
0.89999999999999991
40
1
40
1
40
1
40
1
40
1
40
1
41
1
41
1
41
1
41
1
41
1
41
1
41
1
41
1
41
1
41
1
41
1
41
1
41
1
41
1
41
1
10
37.000000551342964
20
34.000000506639481
30
0
10
36.726899736074159
20
33.764186892122126
30
0
10
36.167224893450935
20
33.297678742541457
30
0
10
35.287291375882766
20
32.613274371047055
30
0
10
34.031888169266502
20
31.731950925929571
30
0
10
32.317038086656972
20
30.685615118753628
30
0
10
30.445905140060571
20
29.698658202967572
30
0
10
28.409536947611155
20
28.774481591192146
30
0
10
26.209645360958493
20
27.912434873947525
30
0
10
23.858390195175453
20
27.107897990393145
30
0
10
21.369962168102241
20
26.355479248359337
30
0
10
19.279714195889312
20
25.791350890216705
30
0
10
17.659824664756368
20
25.388089099679188
30
0
10
16.55707858318668
20
25.127918147133155
30
0
10
16.000000238418579
20
25.00000037252903
30
0
0
CIRCLE
5
105
100
AcDbEntity
8
0
100
AcDbCircle
10
-2.4500000000000011
20
50.620000000000005
30
0
40
2.4999999999999982
210
0
220
0
230
1
0
CIRCLE
5
106
100
AcDbEntity
8
0
100
AcDbCircle
10
-9.5100000000000016
20
61.649999999999999
30
0
40
2.5
210
0
220
0
230
1
0
CIRCLE
5
107
100
AcDbEntity
8
0
100
AcDbCircle
10
2.5613824815388249
20
83.211256944316276
30
0
40
2.4999999999999996
210
0
220
0
230
1
0
CIRCLE
5
108
100
AcDbEntity
8
0
100
AcDbCircle
10
-25
20
25
30
0
40
5
210
0
220
0
230
1
0
LINE
5
109
100
AcDbEntity
8
0
100
AcDbLine
10
0.061393776180816428
20
83.203742086873476
30
0
11
3.8178848916691095
21
85.372553243609104
31
0
0
LINE
5
110
100
AcDbEntity
8
0
100
AcDbLine
10
0.061393776180816428
20
83.203742086873476
30
0
11
4.6639346733648646
21
83.203742086873476
31
0
0
LINE
5
111
100
AcDbEntity
8
0
100
AcDbLine
10
0.42512907733580019
20
81.91263406101605
30
0
11
4.7541495905141105
21
84.411995219626988
31
0
0
LINE
5
112
100
AcDbEntity
8
0
100
AcDbLine
10
0.42512907733580019
20
81.91263406101605
30
0
11
5.4686922576235268
21
81.91263406101605
31
0
0
LINE
5
113
100
AcDbEntity
8
0
100
AcDbLine
10
1.9706483871323215
20
80.782052706359792
30
0
11
4.9605021097932074
21
82.508245557975641
31
0
0
LINE
5
114
100
AcDbEntity
8
0
100
AcDbLine
10
1.9706483871323215
20
80.782052706359792
30
0
11
6.1279876995354527
21
80.782052706359792
31
0
0
SPLINE
5
115
100
AcDbEntity
8
0
100
AcDbSpline
70
4
71
5
72
31
73
25
74
0
42
0.000000001
43
0.0000000001
44
0.0000000001
40
0
40
0
40
0
40
0
40
0
40
0
40
0.050000000000000003
40
0.10000000000000001
40
0.15000000000000002
40
0.20000000000000001
40
0.25
40
0.29999999999999999
40
0.34999999999999998
40
0.39999999999999997
40
0.44999999999999996
40
0.49999999999999994
40
0.54999999999999993
40
0.59999999999999998
40
0.65000000000000002
40
0.70000000000000007
40
0.75000000000000011
40
0.80000000000000016
40
0.8500000000000002
40
0.90000000000000024
40
0.95000000000000029
40
1
40
1
40
1
40
1
40
1
40
1
41
1
41
1
41
1
41
1
41
1
41
1
41
1
41
1
41
1
41
1
41
1
41
1
41
1
41
1
41
1
41
1
41
1
41
1
41
1
41
1
41
1
41
1
41
1
41
1
41
1
10
-12.009975857263715
20
61.660986951285857
30
0
10
-11.938958253399898
20
61.740188280998858
30
0
10
-11.799216257400944
20
61.885209470061
30
0
10
-11.596482867198469
20
62.062597323734721
30
0
10
-11.339987306443506
20
62.218494720486149
30
0
10
-11.042556311958778
20
62.280095776328473
30
0
10
-10.768223987666008
20
62.215056333831853
30
0
10
-10.516344931220154
20
62.039512335267872
30
0
10
-10.285408993037205
20
61.782866117033691
30
0
10
-10.072654634936434
20
61.492897742255579
30
0
10
-9.8743288786374013
20
61.226070972487761
30
0
10
-9.6859821607105481
20
61.036629254381964
30
0
10
-9.5027216525622116
20
60.966089606174343
30
0
10
-9.319460343893704
20
61.03242460475218
30
0
10
-9.1311566889829248
20
61.218661415246657
30
0
10
-8.9330237431732726
20
61.483854468681841
30
0
10
-8.7207466108355707
20
61.774057598785689
30
0
10
-8.4907080505118326
20
62.032820637363244
30
0
10
-8.2402468847315973
20
62.212008618556887
30
0
10
-7.9679047542070025
20
62.281840027589439
30
0
10
-7.6730626039025918
20
62.225990322510071
30
0
10
-7.4191220182592836
20
62.07536586176662
30
0
10
-7.2185758628140118
20
61.902292810725143
30
0
10
-7.0804119604799221
20
61.760307185401835
30
0
10
-7.0102133888547247
20
61.682663415908522
30
0
0
SPLINE
5
116
100
AcDbEntity
8
0
100
AcDbSpline
70
4
71
5
72
31
73
25
74
0
42
0.000000001
43
0.0000000001
44
0.0000000001
40
0
40
0
40
0
40
0
40
0
40
0
40
0.050000000000000003
40
0.10000000000000001
40
0.15000000000000002
40
0.20000000000000001
40
0.25
40
0.29999999999999999
40
0.34999999999999998
40
0.39999999999999997
40
0.44999999999999996
40
0.49999999999999994
40
0.54999999999999993
40
0.59999999999999998
40
0.65000000000000002
40
0.70000000000000007
40
0.75000000000000011
40
0.80000000000000016
40
0.8500000000000002
40
0.90000000000000024
40
0.95000000000000029
40
1
40
1
40
1
40
1
40
1
40
1
41
1
41
1
41
1
41
1
41
1
41
1
41
1
41
1
41
1
41
1
41
1
41
1
41
1
41
1
41
1
41
1
41
1
41
1
41
1
41
1
41
1
41
1
41
1
41
1
41
1
10
-11.732505008994757
20
62.794758264872208
30
0
10
-11.672859865612624
20
62.86743382400622
30
0
10
-11.555235592756842
20
63.002254195163573
30
0
10
-11.383797185154039
20
63.17289323222127
30
0
10
-11.165249782530861
20
63.33696476526675
30
0
10
-10.908910069606886
20
63.43697217063994
30
0
10
-10.669346370467895
20
63.43646083178497
30
0
10
-10.446078270959188
20
63.34690989138393
30
0
10
-10.237999776195171
20
63.189201850908304
30
0
10
-10.043065210062547
20
62.998034708751369
30
0
10
-9.85844514843407
20
62.815840559257637
30
0
10
-9.6808041148448858
20
62.6837682699407
30
0
10
-9.5065169493770298
20
62.633629152731267
30
0
10
-9.3318950227653588
20
62.6793717739573
30
0
10
-9.1534033997902249
20
62.80815272380535
30
0
10
-8.9677765605537836
20
62.988779048806769
30
0
10
-8.7721417673109787
20
63.180393454032526
30
0
10
-8.5641425663504371
20
63.340518338747636
30
0
10
-8.342103436376199
20
63.433943063623417
30
0
10
-8.10513227536992
20
63.439346179226142
30
0
10
-7.8528628832529721
20
63.345016061225209
30
0
10
-7.6387860677109076
20
63.186006320240494
30
0
10
-7.4713841901250362
20
63.019435971901231
30
0
10
-7.3567534855191807
20
62.887448323655391
30
0
10
-7.2986807653194754
20
62.816219208524686
30
0
0
SPLINE
5
117
100
AcDbEntity
8
0
100
AcDbSpline
70
4
71
5
72
31
73
25
74
0
42
0.000000001
43
0.0000000001
44
0.0000000001
40
0
40
0
40
0
40
0
40
0
40
0
40
0.050000000000000003
40
0.10000000000000001
40
0.15000000000000002
40
0.20000000000000001
40
0.25
40
0.29999999999999999
40
0.34999999999999998
40
0.39999999999999997
40
0.44999999999999996
40
0.49999999999999994
40
0.54999999999999993
40
0.59999999999999998
40
0.65000000000000002
40
0.70000000000000007
40
0.75000000000000011
40
0.80000000000000016
40
0.8500000000000002
40
0.90000000000000024
40
0.95000000000000029
40
1
40
1
40
1
40
1
40
1
40
1
41
1
41
1
41
1
41
1
41
1
41
1
41
1
41
1
41
1
41
1
41
1
41
1
41
1
41
1
41
1
41
1
41
1
41
1
41
1
41
1
41
1
41
1
41
1
41
1
41
1
10
-11.599999740719795
20
60.399998649954796
30
0
10
-11.565262631216161
20
60.456286739463572
30
0
10
-11.494892554784107
20
60.559243321663523
30
0
10
-11.386649824459504
20
60.684818126964501
30
0
10
-11.236929393550506
20
60.794306544304682
30
0
10
-11.040752453729507
20
60.83560277703441
30
0
10
-10.835688669417705
20
60.787034095716564
30
0
10
-10.622184485288615
20
60.661614194753056
30
0
10
-10.401191802665409
20
60.483890719847167
30
0
10
-10.174210423028665
20
60.289736849330311
30
0
10
-9.9430486170890138
20
60.118292421045254
30
0
10
-9.7096568564836492
20
60.005676418573117
30
0
10
-9.4759436002302486
20
59.978138662975269
30
0
10
-9.2435948810631121
20
60.044829994957318
30
0
10
-9.0139112470395961
20
60.191645705436862
30
0
10
-8.7878773471678748
20
60.389223322658509
30
0
10
-8.5662057621167715
20
60.599383559575259
30
0
10
-8.3493816579726605
20
60.782140092326713
30
0
10
-8.1376998140986796
20
60.901881819837804
30
0
10
-7.9312923175822201
20
60.935241809285749
30
0
10
-7.7301780297486147
20
60.869818267919356
30
0
10
-7.5734877551229554
20
60.73425524115315
30
0
10
-7.4583072826516741
20
60.585402344705095
30
0
10
-7.3825548494437667
20
60.465280833208787
30
0
10
-7.3449372699884279
20
60.399998649954796
30
0
0
LINE
5
118
100
AcDbEntity
8
0
100
AcDbLine
10
-4.9490079284389079
20
50.690422820161388
30
0
11
-1.2614839870464545
21
52.819415760367512
31
0
0
LINE
5
119
100
AcDbEntity
8
0
100
AcDbLine
10
-4.9490079284389079
20
50.690422820161388
30
0
11
-0.61987298107780919
21
50.690422820161388
31
0
0
LINE
5
120
100
AcDbEntity
8
0
100
AcDbLine
10
-4.6202904006542047
20
49.379097273422204
30
0
11
-0.29020151483114875
21
51.879075257267154
31
0
0
LINE
5
121
100
AcDbEntity
8
0
100
AcDbLine
10
-4.6202904006542047
20
49.379097273422204
30
0
11
0.37966556703569243
21
49.379097273422204
31
0
0
LINE
5
122
100
AcDbEntity
8
0
100
AcDbLine
10
-3.6600711988310342
20
48.432369388182828
30
0
11
0.049579283345690117
21
50.57413709266698
31
0
0
LINE
5
123
100
AcDbEntity
8
0
100
AcDbLine
10
-3.6385160129535472
20
52.819415760367512
30
0
11
0.049007928438904447
21
50.690422820161388
31
0
0
LINE
5
124
100
AcDbEntity
8
0
100
AcDbLine
10
-3.6385160129535472
20
52.819415760367512
30
0
11
0.61946986745869792
21
52.819415760367512
31
0
0
LINE
5
125
100
AcDbEntity
8
0
100
AcDbLine
10
-4.6775453316567175
20
51.754919290264453
30
0
11
-0.35335839755762516
21
49.258348799836078
31
0
0
LINE
5
126
100
AcDbEntity
8
0
100
AcDbLine
10
-4.9474283093330893
20
50.506634045050269
30
0
11
-1.2994636422442127
21
48.400480662512265
31
0
0
ENDSEC
0
SECTION
2
OBJECTS
0
DICTIONARY
5
C
100
AcDbDictionary
3
ACAD_GROUP
350
D
3
ACAD_MLINESTYLE
350
17
0
DICTIONARY
5
D
100
AcDbDictionary
0
DICTIONARY
5
1A
330
C
100
AcDbDictionary
0
DICTIONARY
5
17
100
AcDbDictionary
0
ENDSEC
0
EOF
