0
SECTION
2
HEADER
9
$INSUNITS
70
4
9
$ACADVER
1
AC1014
9
$HANDSEED
5
FFFF
0
ENDSEC
0
SECTION
2
TABLES
0
TABLE
2
VPORT
5
8
100
AcDbSymbolTable
0
ENDTAB
0
TABLE
2
LTYPE
5
5
100
AcDbSymbolTable
0
LTYPE
5
14
100
AcDbSymbolTableRecord
100
AcDbLinetypeTableRecord
2
BYBLOCK
70
0
0
LTYPE
5
15
100
AcDbSymbolTableRecord
100
AcDbLinetypeTableRecord
2
BYLAYER
70
0
0
ENDTAB
0
TABLE
2
LAYER
5
2
100
AcDbSymbolTable
70
2
0
LAYER
5
50
100
AcDbSymbolTableRecord
100
AcDbLayerTableRecord
2
0
70
0
6
CONTINUOUS
0
ENDTAB
0
TABLE
2
STYLE
5
3
100
AcDbSymbolTable
70
1
0
STYLE
5
11
100
AcDbSymbolTableRecord
100
AcDbTextStyleTableRecord
2
STANDARD
70
0
0
ENDTAB
0
TABLE
2
VIEW
5
6
100
AcDbSymbolTable
70
0
0
ENDTAB
0
TABLE
2
UCS
5
7
100
AcDbSymbolTable
70
0
0
ENDTAB
0
TABLE
2
APPID
5
9
100
AcDbSymbolTable
70
2
0
APPID
5
12
100
AcDbSymbolTableRecord
100
AcDbRegAppTableRecord
2
ACAD
70
0
0
ENDTAB
0
TABLE
2
DIMSTYLE
5
A
100
AcDbSymbolTable
70
1
0
ENDTAB
0
TABLE
2
BLOCK_RECORD
5
1
100
AcDbSymbolTable
70
1
0
BLOCK_RECORD
5
1F
100
AcDbSymbolTableRecord
100
AcDbBlockTableRecord
2
*MODEL_SPACE
0
BLOCK_RECORD
5
1B
100
AcDbSymbolTableRecord
100
AcDbBlockTableRecord
2
*PAPER_SPACE
0
ENDTAB
0
ENDSEC
0
SECTION
2
BLOCKS
0
BLOCK
5
20
100
AcDbEntity
100
AcDbBlockBegin
2
*MODEL_SPACE
0
ENDBLK
5
21
100
AcDbEntity
100
AcDbBlockEnd
0
BLOCK
5
1C
100
AcDbEntity
100
AcDbBlockBegin
2
*PAPER_SPACE
0
ENDBLK
5
1D
100
AcDbEntity
100
AcDbBlockEnd
0
ENDSEC
0
SECTION
2
ENTITIES
0
CIRCLE
5
100
100
AcDbEntity
8
0
100
AcDbCircle
10
25
20
25
30
0
40
5
210
0
220
0
230
1
0
CIRCLE
5
101
100
AcDbEntity
8
0
100
AcDbCircle
10
12.000000000000002
20
33.899999999999999
30
0
40
2.5000000000000018
210
0
220
0
230
1
0
CIRCLE
5
102
100
AcDbEntity
8
0
100
AcDbCircle
10
-2.5600000000000001
20
66.349999999999994
30
0
40
2.5000000000000009
210
0
220
0
230
1
0
CIRCLE
5
103
100
AcDbEntity
8
0
100
AcDbCircle
10
14.100000000000001
20
55.899999999999999
30
0
40
2.4999999999999991
210
0
220
0
230
1
0
SPLINE
5
104
100
AcDbEntity
8
0
100
AcDbSpline
70
4
71
5
72
21
73
15
74
0
42
0.000000001
43
0.0000000001
44
0.0000000001
40
0
40
0
40
0
40
0
40
0
40
0
40
0.10000000000000001
40
0.20000000000000001
40
0.30000000000000004
40
0.40000000000000002
40
0.5
40
0.59999999999999998
40
0.69999999999999996
40
0.79999999999999993
40
0.89999999999999991
40
1
40
1
40
1
40
1
40
1
40
1
41
1
41
1
41
1
41
1
41
1
41
1
41
1
41
1
41
1
41
1
41
1
41
1
41
1
41
1
41
1
10
7.2616613379013906
20
92.368026570474314
30
0
10
6.9793704319569407
20
92.03125003567564
30
0
10
6.3967501939629647
20
91.368817180639169
30
0
10
5.468702409916828
20
90.408529866410106
30
0
10
4.1213084476042585
20
89.195956982716353
30
0
10
2.2421212194236402
20
87.800419197118984
30
0
10
0.15363208638036116
20
86.533910522665579
30
0
10
-2.1562404092228302
20
85.403878859716229
30
0
10
-4.6853829689712923
20
84.409021415415509
30
0
10
-7.4175821367787727
20
83.539343021143694
30
0
10
-10.333857494463921
20
82.783142749047741
30
0
10
-12.800429042900863
20
82.260513366592789
30
0
10
-14.720427185359179
20
81.911737319110429
30
0
10
-16.031055374885032
20
81.698102189579217
30
0
10
-16.694027327768328
20
81.596005492622808
30
0
0
SPLINE
5
105
100
AcDbEntity
8
0
100
AcDbSpline
70
4
71
5
72
21
73
15
74
0
42
0.000000001
43
0.0000000001
44
0.0000000001
40
0
40
0
40
0
40
0
40
0
40
0
40
0.10000000000000001
40
0.20000000000000001
40
0.30000000000000004
40
0.40000000000000002
40
0.5
40
0.59999999999999998
40
0.69999999999999996
40
0.79999999999999993
40
0.89999999999999991
40
1
40
1
40
1
40
1
40
1
40
1
41
1
41
1
41
1
41
1
41
1
41
1
41
1
41
1
41
1
41
1
41
1
41
1
41
1
41
1
41
1
10
18.000000268220901
20
80.000001192092896
30
0
10
17.499737875412531
20
79.502272008537375
30
0
10
16.473847180320313
20
78.527325651601785
30
0
10
14.858910448132637
20
77.126444541221545
30
0
10
12.550981737118033
20
75.383684020120384
30
0
10
9.391890592748485
20
73.426947799998089
30
0
10
5.9382821434875428
20
71.708371459781986
30
0
10
2.1728831290938344
20
70.241922931116179
30
0
10
-1.9018719097461776
20
69.025633535386902
30
0
10
-6.2633872109018496
20
68.041231327590751
30
0
10
-10.885028864783788
20
67.267178935879457
30
0
10
-14.771135924194937
20
66.800604091001787
30
0
10
-17.784783074905803
20
66.530782852983222
30
0
10
-19.837186131499241
20
66.385920354150713
30
0
10
-20.874214611710702
20
66.322244262833408
30
0
0
SPLINE
5
106
100
AcDbEntity
8
0
100
AcDbSpline
70
4
71
5
72
21
73
15
74
0
42
0.000000001
43
0.0000000001
44
0.0000000001
40
0
40
0
40
0
40
0
40
0
40
0
40
0.10000000000000001
40
0.20000000000000001
40
0.30000000000000004
40
0.40000000000000002
40
0.5
40
0.59999999999999998
40
0.69999999999999996
40
0.79999999999999993
40
0.89999999999999991
40
1
40
1
40
1
40
1
40
1
40
1
41
1
41
1
41
1
41
1
41
1
41
1
41
1
41
1
41
1
41
1
41
1
41
1
41
1
41
1
41
1
10
22.374646133692995
20
64.553703488857792
30
0
10
21.792934881788582
20
64.082792439651655
30
0
10
20.595446585322588
20
63.157718827406185
30
0
10
18.697013037042762
20
61.820355699238178
30
0
10
15.958035440553376
20
60.139336964063652
30
0
10
12.166811483186502
20
58.218746307565262
30
0
10
7.9829217973386344
20
56.491210208414735
30
0
10
3.3876212672873458
20
54.965944724335863
30
0
10
-1.6081803970641586
20
53.637586083899357
30
0
10
-6.9715438522532107
20
52.489939620979115
30
0
10
-12.665952605177184
20
51.505051959710414
30
0
10
-17.46085754738262
20
50.834832270343504
30
0
10
-21.182455327884174
20
50.393829935325947
30
0
10
-23.718346863244541
20
50.126783815920469
30
0
10
-25
20
50
30
0
0
SPLINE
5
107
100
AcDbEntity
8
0
100
AcDbSpline
70
4
71
5
72
21
73
15
74
0
42
0.000000001
43
0.0000000001
44
0.0000000001
40
0
40
0
40
0
40
0
40
0
40
0
40
0.10000000000000001
40
0.20000000000000001
40
0.30000000000000004
40
0.40000000000000002
40
0.5
40
0.59999999999999998
40
0.69999999999999996
40
0.79999999999999993
40
0.89999999999999991
40
1
40
1
40
1
40
1
40
1
40
1
41
1
41
1
41
1
41
1
41
1
41
1
41
1
41
1
41
1
41
1
41
1
41
1
41
1
41
1
41
1
10
26.876386285630947
20
45.742860711117139
30
0
10
26.614524741809433
20
45.267233743868822
30
0
10
25.976571580455104
20
44.329956858064733
30
0
10
24.677003082584225
20
42.965966378207426
30
0
10
22.24724216146388
20
41.232596809516401
30
0
10
17.9971055747958
20
39.21429810873893
30
0
10
12.50039722588693
20
37.348528366868891
30
0
10
5.8181749499829341
20
35.627816623687252
30
0
10
-1.9270201712559132
20
34.037168905979932
30
0
10
-10.600800241364801
20
32.560141679116775
30
0
10
-20.081100101191566
20
31.181799203165056
30
0
10
-28.237117232017717
20
30.149087169420163
30
0
10
-34.651287593177614
20
29.410912965069382
30
0
10
-39.057322950875118
20
28.934693895483761
30
0
10
-41.292821729429164
20
28.700558707352108
30
0
0
SPLINE
5
108
100
AcDbEntity
8
0
100
AcDbSpline
70
4
71
5
72
21
73
15
74
0
42
0.000000001
43
0.0000000001
44
0.0000000001
40
0
40
0
40
0
40
0
40
0
40
0
40
0.10000000000000001
40
0.20000000000000001
40
0.30000000000000004
40
0.40000000000000002
40
0.5
40
0.59999999999999998
40
0.69999999999999996
40
0.79999999999999993
40
0.89999999999999991
40
1
40
1
40
1
40
1
40
1
40
1
41
1
41
1
41
1
41
1
41
1
41
1
41
1
41
1
41
1
41
1
41
1
41
1
41
1
41
1
41
1
10
32.985890777546715
20
38.668697615214676
30
0
10
32.874405960304401
20
38.338764265344579
30
0
10
32.617913334150963
20
37.684342311577652
30
0
10
32.132609242887753
20
36.719042997926927
30
0
10
31.2810641461401
20
35.465187391193361
30
0
10
29.856554464134796
20
33.956351175451097
30
0
10
28.051017581400419
20
32.509400734556159
30
0
10
25.855963080420178
20
31.125715067321224
30
0
10
23.293893118570605
20
29.801639412492094
30
0
10
20.400339489490289
20
28.531402757975659
30
0
10
17.212042674117917
20
27.309037778795322
30
0
10
14.449613457417643
20
26.365544645212399
30
0
10
12.267137489031942
20
25.675897034189429
30
0
10
10.763775695857252
20
25.223989400565184
30
0
10
10
20
25
30
0
0
ENDSEC
0
SECTION
2
OBJECTS
0
DICTIONARY
5
C
100
AcDbDictionary
3
ACAD_GROUP
350
D
3
ACAD_MLINESTYLE
350
17
0
DICTIONARY
5
D
100
AcDbDictionary
0
DICTIONARY
5
1A
330
C
100
AcDbDictionary
0
DICTIONARY
5
17
100
AcDbDictionary
0
ENDSEC
0
EOF
